# xmcd
#
# Track frame offsets: 
#        150
#        16001
#        32657
#        47399
#        56207
#        62243
#        71049
#        87413
#        106685
#        118811
#        128991
#        144695
#        170225
#        178841
#        197972
#        215586
#        246329
#        258293
#        275020
#
# Disc length: 3932 seconds
#
# Revision: 0
# Processed by: cddbd v1.5.2PL0 Copyright (c) Steve Scherf et al.
# Submitted via: ExactAudioCopy v0.99pb5
#
DISCID=2a0f5a13
DTITLE=Андрей Веренок - Троллейбус 5-й
DYEAR=2006
DGENRE=Folklore
TTITLE0=Город кистью осени...
TTITLE1=Напротив светиться окно...
TTITLE2=Брошу к чёрту всех и всё...
TTITLE3=Дромомания
TTITLE4=Ещё раз о Москве
TTITLE5=Забылся, запил, заскучал...
TTITLE6=Испачканы пальцы зелёнкой...
TTITLE7=Когда мне станет мерзопакостно соасем...
TTITLE8=Московская осенняя
TTITLE9=Никак язык не развяжу...
TTITLE10=Ну вот и ночь в моём дому...
TTITLE11=Огоньки, огоньки...
TTITLE12=Окурки бросаю в блюдце...
TTITLE13=Усталость
TTITLE14=Скоро будет Новый год...
TTITLE15=То ли будни, то ли праздник...
TTITLE16=Человек с душою крылатой...
TTITLE17=Эх, от общества я отстал...
TTITLE18=Троллейбус 5-й
EXTD=
EXTT0=
EXTT1=
EXTT2=
EXTT3=
EXTT4=
EXTT5=
EXTT6=
EXTT7=
EXTT8=
EXTT9=
EXTT10=
EXTT11=
EXTT12=
EXTT13=
EXTT14=
EXTT15=
EXTT16=
EXTT17=
EXTT18=
PLAYORDER=
